<?xml version="1.0" encoding="UTF-8" standalone="no"?>
<!-- Created with Inkscape (http://www.inkscape.org/) -->

<svg
   xmlns:dc="http://purl.org/dc/elements/1.1/"
   xmlns:cc="http://creativecommons.org/ns#"
   xmlns:rdf="http://www.w3.org/1999/02/22-rdf-syntax-ns#"
   xmlns:svg="http://www.w3.org/2000/svg"
   xmlns="http://www.w3.org/2000/svg"
   xmlns:sodipodi="http://sodipodi.sourceforge.net/DTD/sodipodi-0.dtd"
   xmlns:inkscape="http://www.inkscape.org/namespaces/inkscape"
   width="297mm"
   height="210mm"
   viewBox="0 0 297 210"
   version="1.1"
   id="svg6790"
   inkscape:version="0.92.3 (2405546, 2018-03-11)"
   sodipodi:docname="logo-luks1-white.svg"
   inkscape:export-filename="C:\Users\manant1\Desktop\logo-luks1-white.png"
   inkscape:export-xdpi="96"
   inkscape:export-ydpi="96">
  <defs
     id="defs6784" />
  <sodipodi:namedview
     id="base"
     pagecolor="#ffffff"
     bordercolor="#666666"
     borderopacity="1.0"
     inkscape:pageopacity="0"
     inkscape:pageshadow="2"
     inkscape:zoom="0.49497474"
     inkscape:cx="498.3043"
     inkscape:cy="445.71429"
     inkscape:document-units="mm"
     inkscape:current-layer="layer1"
     showgrid="false"
     inkscape:window-width="1366"
     inkscape:window-height="705"
     inkscape:window-x="-8"
     inkscape:window-y="-8"
     inkscape:window-maximized="1"
     inkscape:pagecheckerboard="false" />
  <metadata
     id="metadata6787">
    <rdf:RDF>
      <cc:Work
         rdf:about="">
        <dc:format>image/svg+xml</dc:format>
        <dc:type
           rdf:resource="http://purl.org/dc/dcmitype/StillImage" />
        <dc:title></dc:title>
      </cc:Work>
    </rdf:RDF>
  </metadata>
  <g
     inkscape:label="Layer 1"
     inkscape:groupmode="layer"
     id="layer1"
     transform="translate(0,-87)">
    <path
       style="opacity:1;fill:#f0f0f0;fill-opacity:1;fill-rule:nonzero;stroke:none;stroke-width:3.76133871"
       d="M 586.0957 160.70898 C 585.43746 160.70898 584.74713 160.74321 584.01367 160.80859 C 577.72095 161.35398 572.1646 164.1325 568.93359 165.74609 C 563.80311 168.28877 561.88533 170.20939 559.06055 171.94336 C 553.23425 175.5129 548.12345 175.46883 537.03125 175.41992 C 535.50791 175.41626 533.8733 175.41016 532.10547 175.41016 C 516.78553 175.41016 523.36651 175.95299 493.18555 176.45703 C 480.24282 176.66755 476.15338 176.59941 470.45117 175.88867 C 462.80439 174.94077 461.28624 173.93814 451.83398 172.94141 L 431.24414 173.20508 C 426.47098 174.29211 422.90982 175.10342 419.65625 178.14258 C 413.41243 184.03286 413.86574 193.07689 414.03125 195.07422 C 414.74588 203.99988 420.53486 210.22685 423.61914 213.42773 C 442.71547 233.23499 460.83655 244.49302 479.05273 261.0918 C 495.58004 276.17476 484.99175 270.85125 498.66797 284.53125 C 500.61261 286.45329 503.53578 289.28268 502.89258 292.10742 C 502.13282 295.5754 496.38556 297.28226 488.19336 298.7793 C 470.04872 302.05539 456.3457 301.32422 456.3457 301.32422 C 441.69153 300.51551 426.99613 300.56369 412.3457 299.73242 C 411.03678 299.66099 407.88031 299.47062 405.83789 301.44531 C 402.27213 304.93208 404.5783 312.62865 405.29297 315.00586 C 408.87751 326.99694 433.69356 344.49388 479.47656 351.38086 C 495.79327 353.84832 491.54208 351.14788 569.08203 350.97852 C 581.52083 350.95962 591.59639 350.97419 607.83789 350.69141 C 629.80413 350.28892 640.77153 350.0745 643.4082 349.98047 C 673.82992 348.88592 683.76063 347.1328 689.41016 353.92578 C 692.09574 357.17557 691.7354 359.86129 692.77734 368.88477 C 694.84607 386.62322 696.79211 403.20417 705.33789 416.71484 C 713.89119 430.18051 721.11276 428.11178 734.83789 443.38281 C 736.14307 444.84972 739.63797 448.79882 742.86523 448.03906 C 745.99842 447.27548 747.1639 442.5506 747.26172 442.24219 C 747.99517 439.10896 747.21104 435.71381 743.86328 430.10938 C 737.30727 419.18272 729.27894 413.81586 730.18164 412.48438 C 730.63303 411.81861 732.9889 412.6037 734.27148 413.17188 C 740.47021 415.95149 741.62884 422.34157 743.19727 422.08203 C 745.31116 421.72487 746.03061 409.63184 743.93555 396.52734 C 742.39339 386.8118 741.15398 379.1929 735.66992 371.42578 C 730.58831 364.20401 723.98326 359.95545 724.76562 358.74805 C 725.28845 357.98454 728.42836 359.41019 731.58789 360.57617 C 735.8382 362.14093 738.02387 362.47358 752.88867 365.08398 C 774.73453 368.90928 841.75985 370.80442 846.22461 371.71094 C 861.82661 374.82153 876.88086 378.59858 876.88086 379.33203 C 876.78675 379.78342 870.68113 378.54878 859.66797 377.83789 C 849.54998 377.19847 835.13338 376.9578 834.94531 378.54883 C 834.94531 378.66562 834.98908 378.97554 836.83984 379.81055 C 843.32064 382.7294 849.55058 382.04096 849.5957 382.39453 C 849.5957 382.80075 842.14046 382.42263 835.79883 385.53125 C 827.98654 389.35273 824.61258 397.17085 822.26172 402.4668 C 816.06303 416.40634 815.86821 433.05295 820.00195 434.47852 C 822.33396 435.30597 824.06786 430.51133 831.71094 427.71289 C 835.94246 426.16699 838.33825 426.56658 843.82227 426.16406 C 849.28372 425.75784 854.55849 424.42789 865.15039 421.79492 C 877.47634 418.70686 883.62629 417.16571 886.85352 415.0293 C 897.82541 407.7624 902.09766 401.89453 902.09766 401.89453 C 903.52314 399.94989 906.21076 395.88825 908.58789 396.38477 C 909.62979 396.62552 910.03756 397.73607 910.55664 398.23633 C 916.18734 403.50593 919.01389 406.14449 920.43945 408.07031 C 922.78654 411.25241 923.20796 414.6978 924.04297 421.60742 C 924.7313 427.3322 925.5397 434.24352 922.66602 442.0332 C 920.33401 448.29966 916.28073 453.4034 915.35547 452.97461 C 914.26466 452.45179 919.91066 443.97582 919.31641 432.65039 C 918.84245 423.64945 914.37571 412.27276 908.1582 411.34375 C 902.83587 410.56131 899.11482 417.87671 890.18164 428.91992 C 880.70682 440.60645 867.0497 457.46637 847.85938 465.51562 C 832.96819 471.7594 818.12841 471.28493 810.41016 471.02539 C 798.67476 470.64173 787.06548 467.9861 785.57227 467.625 C 776.25917 465.48855 769.56458 462.87964 765.81445 461.42773 C 728.171 446.87134 748.73825 455.80518 709.95508 440.55664 C 709.95508 440.55664 704.28306 438.32863 667.06836 428.71094 C 665.49989 428.30471 659.35339 426.78357 652.96289 429.27734 C 650.89791 430.05974 647.35951 431.50791 646.19727 434.9082 C 645.08015 438.20312 646.83285 441.38835 647.31055 442.24219 C 649.44696 446.09005 653.22291 447.77827 654.64844 448.46289 C 658.54521 450.2909 663.07988 454.56962 672.14844 463.11914 C 672.14844 463.11914 681.07891 471.54335 686.82617 485.69727 C 697.8958 513.0347 681.29284 554.38236 665.92773 574.85156 C 665.92773 574.85156 657.52218 586.08142 653.53516 605.88867 C 653.05746 608.19063 652.44055 612.16129 654.64844 615.48633 C 657.26259 619.42444 662.15221 619.97158 662.55469 619.99414 C 666.59436 620.39658 669.8235 618.33308 671.58008 617.19336 C 683.52985 609.49767 689.98986 605.59519 696.41797 600.25781 C 704.17008 593.82974 708.55931 591.28155 713.90039 588.95703 C 724.08988 584.56378 730.00313 585.84258 740.42578 584.44336 C 754.93701 582.51758 754.84291 578.55501 783.3125 567.51172 C 794.23919 563.28398 807.96246 558.03934 826.20117 554.54883 C 840.6861 551.76917 862.53447 549.22735 863.58008 553 C 863.93346 554.26006 828.12277 579.88083 824.51562 584.44336 C 822.94716 586.44061 813.56526 598.26767 817.0332 603.49219 C 819.92946 607.908 830.49858 605.487 848.76367 601.09375 C 868.13832 596.46356 878.04142 594.08662 889.96484 586.70312 C 901.91087 579.31585 912.31002 569.15004 914.375 567.11133 C 922.90573 558.62958 924.56273 554.92569 931.31055 551.57812 C 936.92624 548.78721 940.84949 548.87002 946.01758 548.94531 C 949.10938 548.99407 952.65614 549.03642 957.26758 548.46484 C 970.02227 546.92265 978.95259 541.93797 996.83398 531.96289 C 1011.5785 523.74813 1018.9683 519.63379 1024.332 512.91602 C 1029.2303 506.82402 1032.0541 500.5617 1035.1543 497.58203 L 1035.9023 497.61719 C 1035.9541 497.64364 1036.0317 497.64353 1036.0801 497.67188 C 1037.5002 498.07322 1038.3669 499.22665 1039.457 500.74609 C 1040.002 501.50585 1040.5985 502.3539 1041.3516 503.25195 C 1042.1047 504.14997 1043.0131 505.09303 1044.168 506.03516 C 1045.3677 507.01428 1046.5387 507.73789 1047.8535 508.27148 C 1048.511 508.5387 1049.2022 508.76019 1049.9531 508.93945 C 1050.704 509.1186 1051.5168 509.26142 1052.4043 509.36914 C 1055.9542 509.79963 1060.7686 509.71842 1068.2285 509.63867 C 1071.5276 509.60844 1075.3294 509.57057 1079.7773 509.57812 C 1085.8165 509.58568 1090.1596 509.67173 1093.4863 509.58594 C 1096.8131 509.49825 1099.125 509.23315 1101.1113 508.55469 C 1101.7735 508.32867 1102.4027 508.05699 1103.0176 507.72852 C 1103.6324 507.40007 1104.2352 507.01538 1104.8535 506.56641 C 1105.1752 506.32981 1106.3651 505.44366 1107.7227 504.03711 C 1108.1752 503.56826 1108.6488 503.03924 1109.1113 502.46094 C 1109.574 501.88267 1110.031 501.25549 1110.4512 500.57812 C 1111.7118 498.54591 1112.6597 496.08856 1112.5938 493.34961 C 1112.5673 492.24996 1112.38 491.23665 1111.998 490.22461 C 1111.6164 489.21264 1111.0429 488.20161 1110.2402 487.11133 C 1109.4377 486.02097 1108.4118 484.84822 1107.123 483.51367 C 1105.8344 482.17908 1104.2853 480.68615 1102.4453 478.94141 C 1098.2486 474.96738 1094.5742 471.48413 1091.3262 468.43359 C 1088.0781 465.38306 1085.2554 462.76243 1082.7539 460.5 C 1080.2524 458.23757 1078.0702 456.33439 1076.1133 454.72461 C 1075.1347 453.91972 1074.2123 453.18861 1073.332 452.52148 C 1072.4517 451.85436 1071.6159 451.24942 1070.8086 450.70312 C 1068.1935 448.9018 1065.7792 445.87304 1063.9707 444.38867 C 1063.6876 443.9047 1063.4285 443.39065 1063.209 442.8125 C 1060.4782 435.66972 1065.2006 427.85713 1066.6035 425.31445 C 1073.2988 413.15779 1072.0186 397.83548 1069.4082 367.20312 C 1065.3911 319.73128 1042.9249 284.86545 1038.3887 278.02734 C 1022.6663 254.3723 1005.616 240.39145 992.10156 229.51367 C 981.96472 221.32147 958.64346 203.79839 924.39648 189.99805 C 893.28644 177.51037 868.66537 174.31971 841.42578 170.80664 C 793.243 164.61169 686.51393 165.5628 665.63477 166.93945 C 657.60807 167.46228 647.37533 167.43475 626.90234 167.36328 C 611.0408 167.3183 607.23932 166.48219 603.41406 165.46289 C 595.38359 163.30009 592.12893 160.71289 586.0957 160.71289 L 586.0957 160.70898 z M 573.45898 171.19531 C 573.93808 171.20661 574.40845 171.23854 574.87109 171.27148 C 576.60136 171.39545 580.20107 171.6516 583.64648 174.31836 C 584.45515 174.94278 586.84043 176.83956 588.12305 180.22852 C 589.33042 183.41439 589.35579 187.39643 588.30273 187.75 C 587.4113 188.05085 586.48975 185.51564 582.92773 182.01758 C 581.04708 180.17079 579.16609 178.32897 576.48047 177.18555 C 571.14688 174.90993 566.4238 177.0184 565.91602 175.57031 C 565.56641 174.57358 567.58627 172.92773 568.96289 172.16797 C 570.51446 171.3131 572.0217 171.16141 573.45898 171.19531 z M 764.92188 173.66211 C 782.61585 173.65844 818.45991 173.97206 822.48828 174.28516 C 826.48661 174.59357 830.23443 174.90234 831.14844 174.90234 L 831.22656 174.90234 L 853.375 177.85547 C 857.0724 178.4272 870.84129 180.61231 887.30469 184.89648 C 892.99182 186.38974 902.82366 188.99489 914.67188 193.42578 C 921.44985 195.9609 942.88736 204.34589 968.09961 221.2832 C 976.48744 226.92521 986.29088 233.51296 997.64258 244.29297 C 1018.6309 264.26566 1029.912 284.33095 1033.9629 292.00781 C 1037.16 298.0749 1048.9116 321.29429 1053.5117 354.93945 C 1058.8904 394.1025 1051.7826 427.38676 1051.2598 427.33789 C 1051.0001 427.31521 1052.1354 417.76747 1051.8984 400.73242 C 1051.8497 396.25644 1051.7554 391.52091 1051.5898 386.63867 L 1049.4844 365.64648 L 1047.1602 349.36914 C 1047.0887 348.77481 1046.971 348.18517 1046.8281 347.61719 C 1040.9492 324.37211 1030.6246 303.7401 1025.291 294.76172 C 996.29108 245.81166 952.36112 220.436 940.84766 214.10938 C 880.90696 181.24657 754.3974 178.09563 755.13086 173.78516 C 755.14598 173.70163 759.02388 173.6652 764.92188 173.66406 L 764.92188 173.66211 z M 712.44727 175.72266 C 712.52209 175.71382 712.61554 175.72247 712.72266 175.74609 C 714.22449 176.07378 718.71247 179.39327 721.8457 182.00977 C 728.99596 187.95269 733.36091 193.8545 734.61719 195.60352 C 738.45375 200.95967 744.13784 208.8501 746.60156 220.26953 C 750.03938 236.07094 745.25112 249.10788 742.64453 256.2168 C 738.68759 266.92159 733.28956 274.07729 729.44922 279.125 C 724.75883 285.21461 718.73092 291.60547 717.37305 291.60547 C 717.30539 291.60547 717.24653 291.59305 717.20117 291.56055 C 716.44137 291.01512 719.63978 285.92335 725.75195 274.15039 C 730.75079 264.47998 733.26285 259.65041 734.71094 256.00195 C 736.10641 252.49633 743.31314 234.41671 737.24609 214.51172 C 736.13272 210.79176 732.92996 200.27702 725.63672 192.76562 C 725.4674 192.60008 721.60903 188.6132 716.98633 182.83203 C 714.19163 179.35279 711.77513 176.3236 712.27539 175.80078 C 712.31526 175.75769 712.37244 175.73149 712.44727 175.72266 z M 562.24023 177.99023 C 563.16554 178.04655 561.70932 181.48897 561.76953 181.86133 C 561.2091 184.03917 561.55565 185.63698 561.98047 186.50586 C 562.62363 187.81482 562.72849 188.43998 565.61719 190.83594 C 567.87024 192.70155 571.73615 192.6272 571.5293 193.19141 C 571.24356 193.96625 568.74286 193.89324 566.88477 193.40039 C 566.12837 193.20083 564.38076 192.64407 562.79102 191.37891 C 561.70875 190.51763 560.69934 189.32862 560.125 187.70312 C 559.25238 185.2244 559.85833 183.06929 560.33984 181.36914 C 560.48271 180.85762 561.30745 177.93381 562.24023 177.99023 z M 642.47852 179.7793 C 649.68841 179.8332 657.4448 180.08804 665.07422 180.61719 C 672.27339 181.11367 676.31539 181.6471 681.15625 183.4375 C 697.31872 189.41804 705.42753 203.12689 707.39844 206.57227 C 716.54977 222.57297 714.65583 238.37861 713.88477 244.09961 C 711.70693 260.2809 703.91243 270.75377 694.13672 283.88086 C 687.29487 293.07732 678.07764 305.44774 661.68945 314.63672 C 669.65224 313.63242 687.33918 312.95614 706.43555 312.73047 C 734.06257 312.40316 741.31822 310.62756 753.83594 314.85156 C 757.52204 316.0928 818.96867 318.97808 823.47852 321.19727 C 832.65993 325.71463 838.91438 329.23467 841.25391 330.50977 C 849.52884 335.01965 866.8084 344.43026 887.38672 346.16797 C 902.13115 347.41676 912.91022 348.3256 923.35547 344.05273 C 926.15391 342.90928 933.8453 339.3786 941.13477 342.36133 C 943.43298 343.29793 944.92966 344.57556 945.79102 345.32031 C 966.08719 362.93095 967.79688 364.78516 967.79688 364.78516 C 986.2011 384.79927 989.90759 390.26194 990.65234 389.76172 C 991.96127 388.88154 986.13174 368.48014 969.07031 355.89844 C 958.67397 348.23288 947.70439 346.12548 947.48242 339.39648 C 947.38453 336.31594 949.55087 332.7842 952.13867 332.20117 C 955.4035 331.46772 958.79116 335.55236 961.02539 338.12891 C 972.87742 351.79008 972.49404 346.33682 983.03711 359.28711 C 994.83264 373.76826 1002.652 389.59621 1003.3516 391.0293 C 1007.8426 400.23332 1008.7315 404.38565 1013.9297 407.95508 C 1017.5518 410.44514 1022.3723 412.04937 1026.2051 417.69141 C 1026.4012 419.48475 1026.8611 421.4623 1027.8535 423.15039 C 1027.6543 423.04948 1027.4868 422.97314 1027.2852 422.87109 C 1027.2092 422.84464 1027.1576 422.79756 1027.082 422.77148 C 1024.7394 421.5705 1022.2589 420.26358 1019.6504 418.84766 C 1011.8248 414.59977 1002.8773 409.35487 993.28516 402.92578 C 988.85109 399.96804 985.23493 397.40126 982.32031 395.42578 C 980.86296 394.43804 979.57856 393.59704 978.45898 392.92969 C 977.89924 392.59596 977.379 392.30865 976.89844 392.06445 C 976.41779 391.81992 975.97529 391.6192 975.57031 391.4707 C 974.95202 391.22163 974.4235 391.0957 973.96875 391.0957 C 973.75974 391.0957 973.56521 391.11745 973.38867 391.17188 C 973.21179 391.22592 973.04973 391.30559 972.9043 391.41406 C 972.90331 391.41471 972.90524 391.41797 972.9043 391.41797 C 972.86234 391.4482 972.82969 391.49598 972.7832 391.55078 L 972.75391 391.55078 C 971.55413 392.64938 971.19683 395.55131 971.63477 399.54102 C 972.18223 404.5281 973.97368 411.21115 976.92969 418.17969 C 978.70331 422.36083 980.89372 426.64162 983.48633 430.72461 C 986.07893 434.80756 989.07568 438.69414 992.45117 442.07031 C 993.57634 443.1957 994.73973 444.26382 995.94922 445.26562 C 998.05219 447.01052 999.68927 448.86002 1000.9688 450.75391 C 1001.6085 451.70083 1002.1612 452.65899 1002.6387 453.61914 C 1003.1161 454.57929 1003.5172 455.54268 1003.8613 456.5 C 1004.5496 458.41471 1004.9989 460.30779 1005.3281 462.11523 C 1005.6573 463.92264 1005.868 465.64485 1006.0703 467.2168 C 1006.1716 468.00275 1006.2718 468.75006 1006.3848 469.45312 C 1006.6108 470.85922 1006.8845 472.08413 1007.332 473.0625 C 1007.5558 473.55168 1007.8258 473.97775 1008.1484 474.33594 C 1008.4712 474.69424 1008.8482 474.98407 1009.2988 475.19531 C 1010.2001 475.61779 1011.3874 475.73225 1012.9746 475.4707 C 1013.7682 475.33993 1014.6612 475.11313 1015.6699 474.78711 C 1015.9492 474.91939 1016.1557 475.16964 1016.2754 475.54688 C 1016.6303 476.53413 1016.5534 478.27791 1016.3301 479.94336 L 1017.9668 481.55273 C 1016.7657 486.64308 1013.44 494.52044 998.26953 508.26367 C 986.11665 519.27313 970.54458 530.24818 969.06641 528.57812 C 968.17497 527.57387 972.56298 522.19797 976.68164 517.14648 C 981.72561 510.97414 983.95567 509.54523 988.5332 504.02734 C 990.53046 501.62387 994.09723 497.08252 997.12891 491.87305 C 1004.0384 480.00227 1006.454 467.58704 1005.4648 467.21094 C 1004.6711 466.90631 1002.0806 474.48481 994.03125 487.52539 C 989.29199 495.20981 986.55745 499.64117 981.76172 504.87695 C 974.13002 513.19698 967.48943 520.44503 957.63477 521.80664 C 955.75407 522.06629 954.12087 522.05847 952.59375 522.05469 C 949.64863 522.04713 947.12177 522.03709 944.09766 523.92383 C 938.70019 527.29403 936.29492 532.50195 936.29492 532.50195 C 935.70063 533.78461 935.33855 534.95965 935.20312 534.92578 C 934.86448 534.82789 936.02399 527.23248 938.16797 521.80859 C 944.08078 506.83097 959.96905 502.21539 958.91211 499.79688 C 957.96802 497.64164 945.11051 500.84036 935.20312 504.45117 C 926.7326 507.53927 920.75709 509.71948 914.04688 514.60547 C 899.88162 524.93034 899.06283 535.24691 886.95508 538.30859 C 884.76223 538.8691 883.48095 538.8624 876.80078 538.73828 C 847.50748 538.18912 845.21759 537.82671 839.56055 537.89062 C 830.5935 537.98851 814.15168 538.16719 796.39062 545.50586 C 782.1502 551.3848 778.3145 557.21826 772.6875 554.82227 C 764.44269 551.30545 760.79139 533.69864 767.18945 522.22656 C 769.3936 518.26959 772.23449 516.05433 775.22852 513.76367 C 779.20424 510.72452 786.09076 506.50233 806.54492 502.75977 C 824.4301 499.48738 830.9024 500.56707 837.44336 494.29688 C 839.82805 492.01003 839.05927 491.77435 843.79102 485.41016 C 849.03806 478.35019 853.39799 474.03848 861.14258 466.36914 C 881.28077 446.41906 883.20369 444.4632 883.57227 444.77539 C 884.60668 445.66313 871.52751 462.67853 867.07031 468.47852 C 862.44387 474.49662 850.60009 489.66122 839.56055 507.83984 C 836.48001 512.91008 831.94413 520.71303 834.9043 526.03906 C 835.09252 526.38149 836.547 528.90657 839.13477 529.42188 C 844.12983 530.41487 849.4353 523.14923 851.40625 520.53516 C 864.77402 502.81545 885.9427 485.34652 893.73242 479.48633 C 909.70308 467.46138 914.09493 470.61626 923.35156 459.5918 C 933.77047 447.19064 936.24593 433.62919 936.90039 429.12305 C 937.81439 422.78523 939.01395 407.4827 930.55469 391.87695 C 923.84448 379.49465 914.49834 373.26715 905.58398 367.32422 C 890.06464 356.98804 875.5938 353.54171 863.68164 350.82227 C 844.11514 346.35381 826.97975 346.09576 826.85938 347.00977 C 826.73881 347.9012 843.07823 348.13681 864.52539 355.89648 C 889.86554 365.0666 912.71916 381.26301 912.7793 381.29688 C 913.96788 384.01254 915.2279 387.52915 914.04688 388.48828 C 911.66596 390.42914 901.45359 380.26761 892.03516 373.67773 C 882.3573 366.90354 873.18921 363.66832 844.64062 357.59375 C 795.41598 347.11093 736.50701 350.32712 701.35352 341.93555 C 681.44852 337.18498 674.46266 334.27165 656.91602 332.19922 C 638.3952 330.01382 622.90104 330.50803 612.42578 331.32422 C 601.97679 334.51006 595.33166 336.44426 590.30273 337.63281 C 564.92869 343.64343 546.13866 344.42328 516.02539 345.67578 C 490.91092 346.71772 477.32841 345.78681 462.48242 342.07422 C 451.88674 339.4225 440.13429 335.22671 440.47656 333.60938 C 440.76607 332.25903 449.24111 333.91732 463.35742 335.57227 C 479.20018 337.43414 502.14464 339.29427 528.56055 336.89453 C 539.7467 335.87897 548.42112 334.38008 561.78516 332.07812 C 585.57936 327.97828 598.80641 324.27718 611.7793 318.69531 C 616.1462 316.81088 623.5833 313.38804 623.3125 312.66211 C 622.95911 311.69546 609.24194 316.35049 594.53516 320.27734 C 584.15007 323.0494 564.13284 328.31231 540.35742 330.4375 C 520.806 332.18651 505.64817 331.19982 481.10547 329.59375 C 469.33243 328.82643 459.64222 327.70037 451.62305 326.76758 C 450.56614 326.64739 446.91641 326.12182 439.62695 325.07617 C 433.5336 324.19978 431.89821 323.94609 429.61133 323.10352 C 425.17292 321.46358 419.55326 318.09149 420.02344 316.61328 C 420.6779 314.52573 432.96909 318.0754 455.43555 319.57617 C 466.68573 320.32841 472.31686 320.7024 479.27539 319.7207 C 492.56417 317.83253 502.90299 312.9582 510.16992 309.13672 C 513.23916 307.52313 516.42317 306.10163 519.60156 304.68359 C 524.61919 302.44184 529.63577 300.20692 534.22461 297.21289 C 535.98867 296.06191 538.4551 294.36629 542.05469 294.03906 C 547.30929 293.56515 549.56325 296.52243 556.02148 298.27148 C 564.07827 300.45681 571.00719 298.68276 571.04102 298.0625 C 571.07881 297.31396 561.16185 298.21064 553.90625 291.71484 C 552.05568 290.05612 549.4092 287.0532 550.09375 286 C 550.91376 284.75502 555.51398 287.63038 562.7207 290.50781 C 568.95322 292.99784 577.13579 295.48553 586.49023 295.3125 C 593.60289 295.18097 598.81874 293.55342 601.51562 292.55664 C 604.52473 291.45079 614.36759 287.66505 620.5625 277.95703 C 622.54849 274.8464 624.21193 271.0473 623.52734 270.55078 C 622.5043 269.80603 618.00639 277.68561 608.28711 282.40234 C 606.58696 283.22983 600.85757 285.83827 593.05273 286 C 590.78842 286.04876 586.6167 285.92374 581.12891 284.30273 C 569.35213 280.82723 560.90856 273.23109 550.37305 263.56445 C 545.91585 259.47213 541.6152 255.11677 534.00977 251.15234 C 529.60148 248.85042 525.02645 247.17706 524.69922 247.76758 C 524.25157 248.57628 532.32585 252.99886 542.75977 262.29688 C 545.81774 265.0201 552.56301 271.27751 552.07031 271.89062 C 551.23908 272.93249 529.6032 258.2891 510.73633 243.53711 C 504.16902 238.39914 500.42928 235.19573 493.52344 231.4043 C 484.13513 226.24373 482.19933 227.29956 472.36719 221.38672 C 467.66927 218.56572 462.62313 216.30818 458.11328 213.20508 C 454.94623 211.02346 451.46421 208.35031 449.36914 209.53516 C 447.47718 210.61463 447.13964 210.925 446.15039 212.32422 C 440.81683 219.85066 444.24561 211.73829 444.48633 210.57227 C 445.11823 207.50302 445.70988 207.21083 444.57031 205.58594 C 443.85564 204.5666 441.6347 204.3905 440.61914 205.30469 C 438.89269 206.86563 437.63376 212.82831 436.23828 213.74609 C 435.44844 214.26517 436.17065 211.48567 436.34375 210.25195 C 436.54331 208.82265 436.60832 208.39905 437.23633 205.72852 C 437.57875 204.26909 437.76226 203.91075 437.51758 203.4707 C 436.91198 202.37233 434.09952 203.26765 432.7793 204.32422 C 430.6278 206.05071 431.0158 207.14858 430.56445 208.11523 C 428.08195 213.43001 429.96498 206.26092 430.17188 204.82031 C 430.58936 201.86015 430.88984 202.48682 429.75391 200.92969 C 428.94524 199.81628 427.5487 200.66662 424.96094 199.51953 C 422.60255 198.47759 420.52504 196.34694 420.87109 195.56836 C 421.42774 194.30452 428.54996 196.30819 431.875 197.25977 C 452.25391 203.08613 468.32364 212.6542 468.41016 212.5 C 468.49293 212.35713 455.70396 202.11388 435.39648 195.28711 C 428.97964 193.1318 422.53189 191.55649 422.70117 190.48828 C 422.91547 189.08528 434.32251 189.77731 436.8125 189.92773 C 482.33974 192.6773 549.95508 230.55664 549.95508 230.55664 C 580.64008 247.75349 597.93903 259.87104 598.48438 259.05859 C 599.07115 258.17842 579.84788 242.70281 555.31641 228.29688 C 525.29713 210.66372 498.53285 201.20959 498.87891 200.36328 C 499.09698 199.83294 509.42665 204.07558 526.5332 208.26953 C 536.10206 210.61658 544.7321 212.19399 544.875 211.65234 C 545.03676 211.03549 534.0093 208.18739 518.63672 201.49219 C 515.08978 199.95384 501.40715 193.99851 501.98633 192.18555 C 502.21952 191.48218 504.47727 191.87678 508.95703 192.2793 C 512.04509 192.55785 516.19478 192.8383 521.45312 192.74805 C 527.50135 192.64638 530.60956 192.57153 534.7207 191.33789 C 539.20799 189.98762 540.04113 188.73874 541.76758 189.35938 C 546.36768 191.02569 543.74801 201.09455 550.23633 205.72852 C 552.38412 207.26312 555.33449 208.0602 556.1582 207.13867 C 557.90348 205.18655 549.8773 195.81274 550.79883 195.00781 C 551.34047 194.53386 554.00291 197.82182 557.7793 201.10547 C 561.68359 204.50194 566.77777 207.90225 571.96094 207.13867 C 574.42833 206.77773 578.55118 205.24069 581.55273 202.05859 C 582.53069 201.02047 582.72429 200.51318 585.50391 196.69922 C 588.71609 192.28337 590.32822 190.07145 590.58398 190.20312 C 591.26479 190.55651 589.61488 199.71277 582.96484 204.88086 C 578.95148 208.00275 574.30258 208.74478 574.50195 209.67383 C 574.65238 210.36216 577.26588 210.49421 579.30078 210.24219 C 583.52474 209.71937 589.48992 207.01508 591.71289 201.7793 C 592.88265 199.02224 592.43508 196.92746 594.24805 195.85547 C 595.77516 194.94899 597.5996 195.5395 598.76562 195.85547 C 604.92293 197.50671 610.77075 196.40584 617.95117 194.7207 C 622.98384 193.54342 627.68213 191.70358 627.54297 191.05664 C 627.46776 190.71044 626.00985 190.85751 623.52734 191.01172 C 621.28559 191.15081 618.20937 191.29362 614.56836 191.05664 C 610.48356 190.78943 607.16355 190.15423 604.9707 189.64648 C 606.07274 189.31162 607.72715 188.84779 609.76953 188.44531 C 615.21972 187.37333 619.49145 187.49415 622.25977 187.5957 C 636.37607 188.09974 643.43105 188.35719 645.74805 188.6543 C 647.23374 188.8463 651.59859 189.44213 657.09766 188.44531 C 658.10191 188.26465 662.29139 187.50503 662.25 186.82422 C 662.18235 185.59051 648.33652 186.25024 627.26172 184.2793 C 615.22547 183.1584 609.21455 182.59338 609.20703 182.02539 C 609.19947 180.9652 620.42677 179.94512 635.47266 179.78906 L 635.47461 179.78906 C 637.7315 179.76563 640.07522 179.76133 642.47852 179.7793 z M 837.92578 188.26562 C 838.13632 188.25556 838.35362 188.25684 838.57617 188.26953 C 839.64446 188.33038 840.84077 188.65076 842.03125 189.25586 C 845.20583 190.86571 847.17103 193.85477 846.38867 195.91602 C 845.93358 197.11212 844.66437 197.74609 843.05078 197.74609 C 841.89602 197.74609 840.56408 197.41735 839.23633 196.74414 C 836.06175 195.13055 834.09068 192.14909 834.87305 190.08789 C 835.30088 188.96067 836.45204 188.3361 837.92578 188.26562 z M 585.88672 189.51367 C 587.32922 189.79502 584.57254 194.50658 582.46289 196.63281 C 580.65851 198.45197 579.37991 201.41604 576.55078 202.39062 C 574.66374 203.04327 572.78929 203.54489 570.30859 203.55078 C 567.13103 203.5659 564.66699 201.69431 561.46875 199.85156 C 560.571 199.33479 559.76817 198.92638 556.99219 196.15039 C 555.11403 194.26924 556.15575 195.57483 555.11328 194.26953 C 554.72346 193.78224 550.50311 187.65505 554.2832 191.49414 C 555.00082 192.22359 554.56777 191.57714 556.60547 193.55273 C 558.37444 195.26558 560.76877 196.47194 561.96484 197.41992 C 562.63522 197.94849 566.41549 200.00242 569.3125 200.68164 C 570.1748 200.88233 572.39661 201.73149 575.94336 200.125 C 577.90422 199.23904 578.83635 196.9627 580.75 194.89258 L 585.54102 189.51758 C 585.67594 189.49488 585.79055 189.49492 585.88672 189.51367 z M 868.72461 195.36719 C 868.93511 195.35702 869.1524 195.35843 869.375 195.37109 C 870.44351 195.43194 871.63964 195.75958 872.83008 196.36328 C 876.00462 197.97313 877.97182 200.95833 877.18945 203.01953 C 876.73432 204.21942 875.46532 204.84766 873.85547 204.84766 C 872.69697 204.84766 871.36274 204.52265 870.03125 203.8457 C 866.85671 202.23959 864.8915 199.2527 865.67383 197.19531 C 866.10375 196.06601 867.2511 195.43839 868.72461 195.36719 z M 656.02148 203.37695 C 657.34545 208.97005 658.68799 216.91282 658.54883 226.46289 C 658.46228 232.49604 658.16034 245.5265 652.08203 259.39453 C 642.15208 282.06036 622.76705 293.37027 614.64258 297.96289 C 597.46455 307.67091 581.08155 310.04335 581.42383 311.47266 C 581.64569 312.39796 588.71576 312.23574 596.34375 310.34375 C 616.9822 305.23209 620.97817 292.60467 645.60742 284.16797 C 650.16992 282.5995 649.81068 283.11102 653.76758 281.63281 C 673.66131 274.19667 686.25503 260.00468 685.57422 259.11328 C 685.42757 258.92166 681.63502 261.05256 674.03711 265.30664 C 669.67773 267.74776 664.93352 269.43794 660.52148 271.78125 C 658.69722 272.74794 657.57629 273.39537 656.86914 272.91016 C 655.2405 271.79678 656.52683 265.22175 660.52148 261.64844 C 662.96635 259.46315 665.56639 259.17337 668.40625 258.55273 C 668.40625 258.55273 681.31233 255.74154 692.05469 246.44727 C 697.6253 241.62523 701.35281 235.75939 700.77734 235.19141 C 700.37486 234.78896 697.99124 237.18381 692.89844 240.53516 C 688.64435 243.33734 683.86839 245.40544 674.31836 249.54297 C 668.28518 252.16086 666.82177 252.60932 665.5918 251.79688 C 663.15446 250.18706 662.97391 244.4895 665.5918 241.37891 C 666.77286 239.97969 668.24781 239.42134 669.8125 238.84961 C 673.74687 237.40526 676.87571 237.74884 678.82031 237.71875 C 687.29084 237.591 694.07295 230.00934 698.24805 225.33398 C 701.51666 221.67423 704.58231 217.00503 703.87891 216.32422 C 703.31096 215.77883 700.68438 218.17365 692.89844 223.08594 C 685.67285 227.64469 682.77566 228.83921 679.94336 229.2793 C 678.26204 229.54273 677.78797 229.35081 673.75586 229.83984 C 671.80744 230.07682 670.81765 230.25359 669.53125 229.83984 C 669.07616 229.6932 667.75467 229.20616 666.15234 227.30664 C 663.42916 224.07564 662.71607 220.09382 662.49414 218.01758 L 656.02148 203.37695 z M 894.78711 204.84961 C 894.99772 204.83958 895.21481 204.84093 895.4375 204.85352 C 896.50643 204.91361 897.7021 205.23478 898.89258 205.83984 C 902.06337 207.44973 904.03236 210.44075 903.25 212.50195 C 902.79865 213.70184 901.52005 214.32422 899.91016 214.32422 C 898.75166 214.32422 897.41958 214.00527 896.0918 213.32812 C 892.91726 211.71827 890.95205 208.72722 891.73438 206.66602 C 892.16225 205.54081 893.31282 204.91982 894.78711 204.84961 z M 830.81836 209.58789 C 831.02896 209.57782 831.24608 209.57911 831.46875 209.5918 C 832.5376 209.65265 833.73199 209.97306 834.92383 210.57812 C 838.0984 212.18798 840.06365 215.17691 839.28125 217.23438 C 838.82612 218.43422 837.55317 219.06836 835.94336 219.06836 C 834.7886 219.06836 833.45275 218.73962 832.125 218.06641 C 828.95042 216.45655 826.98326 213.47136 827.76562 211.41016 C 828.1935 210.28294 829.34417 209.65839 830.81836 209.58789 z M 882.94141 219.06055 C 883.15194 219.05037 883.36924 219.05186 883.5918 219.06445 C 884.66008 219.12493 885.85445 219.44955 887.04492 220.05469 C 890.21954 221.66828 892.1867 224.64973 891.4043 226.71094 C 890.94917 227.91082 889.68016 228.54102 888.07031 228.54102 C 886.91185 228.54102 885.57966 228.22011 884.25195 227.54297 C 881.07734 225.93312 879.10631 222.94206 879.88867 220.88086 C 880.31654 219.75566 881.46764 219.13179 882.94141 219.06055 z M 923.2168 219.06055 C 923.42731 219.05037 923.64458 219.05186 923.86719 219.06445 C 924.93562 219.12493 926.13179 219.44955 927.32227 220.05469 C 930.4968 221.66828 932.46205 224.64973 931.67969 226.71094 C 931.22456 227.91082 929.95751 228.54102 928.34766 228.54102 C 927.18919 228.54102 925.85708 228.22011 924.5293 227.54297 C 921.35102 225.93312 919.38548 222.94206 920.16406 220.88086 C 920.59395 219.75566 921.74324 219.13179 923.2168 219.06055 z M 852.14062 223.79883 C 852.35123 223.78876 852.56834 223.79004 852.79102 223.80273 C 853.85987 223.86358 855.05426 224.18787 856.24609 224.79297 C 859.42071 226.40282 861.38962 229.39387 860.60352 231.45508 C 860.14838 232.65496 858.87548 233.2793 857.26562 233.2793 C 856.1109 233.2793 854.77501 232.95839 853.44727 232.28125 C 850.27269 230.6714 848.30553 227.6823 849.08789 225.62109 C 849.51576 224.49387 850.66641 223.8693 852.14062 223.79883 z M 709.72461 227.48828 C 707.73862 232.85192 704.7611 240.10181 700.43555 248.32031 C 698.11858 252.7286 690.19553 267.78841 680.16406 278.72266 C 658.48371 302.34758 627.70728 305.83708 628.37305 307.99609 C 628.76049 309.26367 639.23715 307.69995 648.63672 304.61914 C 651.89033 303.55093 667.67013 298.15711 682.98633 283.22461 C 696.39175 270.15017 703.06404 255.99506 706.34766 247.19727 L 709.72461 227.48828 z M 826.08008 238.01953 C 826.29057 238.00956 826.50784 238.01073 826.73047 238.02344 C 827.79909 238.08429 828.99367 238.40717 830.18555 239.01367 C 833.36012 240.62352 835.32537 243.60282 834.54297 245.66406 C 834.08788 246.86391 832.81676 247.49414 831.20312 247.49414 C 830.0484 247.49414 826.23204 243.44871 824.9043 242.77539 C 821.7335 241.16176 822.25084 241.89714 823.0332 239.83594 C 823.45899 238.71077 824.60666 238.08932 826.08008 238.01953 z M 847.40234 238.01953 C 847.61284 238.00956 847.8301 238.01073 848.05273 238.02344 C 849.12132 238.08429 850.31594 238.40717 851.50781 239.01367 C 854.68235 240.62352 856.6476 243.60282 855.86523 245.66406 C 855.4101 246.86391 854.14306 247.49414 852.5332 247.49414 C 851.37474 247.49414 850.03673 247.16942 848.70898 246.49609 C 845.53815 244.88246 843.56933 241.89714 844.35547 239.83594 C 844.78126 238.71077 845.9289 238.08932 847.40234 238.01953 z M 911.37109 238.01953 C 911.58171 238.00956 911.79879 238.01073 912.02148 238.02344 C 913.09041 238.08429 914.28609 238.40717 915.47656 239.01367 C 918.65114 240.62352 920.61257 243.60282 919.83398 245.66406 C 919.37885 246.86391 918.10985 247.49414 916.5 247.49414 C 915.3415 247.49414 914.00939 247.16942 912.68164 246.49609 C 909.50328 244.88246 907.53978 241.89714 908.31836 239.83594 C 908.74616 238.71077 909.8968 238.08932 911.37109 238.01953 z M 878.20703 242.75195 C 878.4178 242.74189 878.63472 242.74317 878.85742 242.75586 C 879.92635 242.81671 881.1162 243.14294 882.30664 243.74805 C 885.47744 245.35794 887.44838 248.34696 886.66602 250.4082 C 886.21092 251.60805 884.93602 252.23242 883.32617 252.23242 C 882.16771 252.23242 880.83934 251.90777 879.50781 251.23438 C 876.33702 249.62078 874.36799 246.63538 875.15039 244.57422 C 875.57823 243.44697 876.73167 242.82243 878.20703 242.75195 z M 954.01758 242.75195 C 954.2279 242.74189 954.44552 242.74317 954.66797 242.75586 C 955.73565 242.81671 956.93205 243.14294 958.12109 243.74805 C 961.29567 245.35794 963.26661 248.34696 962.48047 250.4082 C 962.02912 251.60805 960.75634 252.23242 959.14648 252.23242 C 957.98798 252.23242 956.65591 251.90777 955.32812 251.23438 C 952.15359 249.62078 950.18834 246.63538 950.9707 244.57422 C 951.39854 243.44697 952.54529 242.82243 954.01758 242.75195 z M 856.87891 252.23438 C 857.08951 252.22431 857.30663 252.22559 857.5293 252.23828 C 858.59811 252.29913 859.79254 252.62537 860.98438 253.23047 C 864.15517 254.84028 866.1242 257.81978 865.3418 259.88477 C 864.8867 261.08087 863.61376 261.71484 862.00391 261.71484 C 860.84541 261.71484 859.51707 261.3861 858.18555 260.71289 C 855.01475 259.10304 853.04576 256.11784 853.82812 254.05664 C 854.25596 252.92939 855.40471 252.30484 856.87891 252.23438 z M 899.52539 256.97266 C 899.73593 256.9627 899.95322 256.96383 900.17578 256.97656 C 901.24403 257.03779 902.44038 257.36365 903.63086 257.96875 C 906.80544 259.57486 908.77064 262.55794 907.98828 264.61914 C 907.53319 265.81903 906.25829 266.45312 904.64844 266.45312 C 903.48997 266.45033 902.15998 266.12434 900.83594 265.45117 C 897.65766 263.83754 895.69029 260.85405 896.47266 258.78906 C 896.90049 257.66393 898.0516 257.04235 899.52539 256.97266 z M 930.32422 259.3418 C 930.53483 259.33184 930.75191 259.33298 930.97461 259.3457 C 932.04354 259.40655 933.23925 259.73279 934.42969 260.33789 C 937.60426 261.94396 939.56569 264.92708 938.78711 266.98828 C 938.33198 268.18817 937.06493 268.82227 935.45508 268.82227 C 934.29658 268.81947 932.96073 268.49348 931.63672 267.82031 C 928.4584 266.20668 926.49485 263.22319 927.27344 261.1582 C 927.70128 260.03303 928.84993 259.41149 930.32422 259.3418 z M 977.44922 266.45898 C 978.76053 266.3645 980.36978 266.7279 981.95703 267.58203 C 985.10908 269.28592 986.98075 272.27585 986.12695 274.26562 C 985.66804 275.36392 984.479 275.92383 982.9707 275.92383 C 981.74073 275.92383 980.30252 275.55256 978.87695 274.78906 C 975.72494 273.0814 973.8532 270.09312 974.70703 268.09961 C 975.12267 267.10472 976.13791 266.55351 977.44922 266.45898 z M 849.77148 273.55664 C 849.98209 273.54658 850.1992 273.54784 850.42188 273.56055 C 851.49073 273.6214 852.68512 273.94903 853.87695 274.55273 C 857.05153 276.16259 859.01678 279.14196 858.23438 281.20312 C 857.77554 282.40305 856.50634 283.03711 854.89648 283.03711 C 853.74176 283.03711 852.40587 282.70837 851.07812 282.03516 C 847.90355 280.42152 845.93639 277.44389 846.71875 275.37891 C 847.14662 274.25165 848.29727 273.62704 849.77148 273.55664 z M 958.49609 278.29883 C 959.80736 278.20434 961.41662 278.57379 963.00391 279.42773 C 966.15592 281.13162 968.02762 284.11769 967.17383 286.10742 C 966.71492 287.20575 965.52591 287.76953 964.01758 287.76953 C 962.78761 287.76953 961.34565 287.39833 959.92383 286.63086 C 956.77182 284.92319 954.89808 281.94078 955.75195 279.94727 C 956.16755 278.95238 957.18479 278.39332 958.49609 278.29883 z M 897.16016 280.66406 C 897.37092 280.65406 897.5898 280.65527 897.8125 280.66797 C 898.88143 280.72882 900.07124 281.05207 901.26172 281.6543 C 904.43252 283.26422 906.4015 286.24938 905.61914 288.31055 C 905.16405 289.51043 903.88919 290.14453 902.2793 290.14453 C 901.12083 290.14449 899.78869 289.81579 898.46094 289.14258 C 895.28636 287.52898 893.32115 284.54757 894.10352 282.48633 C 894.53135 281.35706 895.6848 280.73409 897.16016 280.66406 z M 930.32422 283.0332 C 930.53483 283.0233 930.75191 283.0244 930.97461 283.03711 C 932.04354 283.09796 933.23925 283.41977 934.42969 284.02344 C 937.60426 285.63333 939.56569 288.62434 938.78711 290.68555 C 938.33198 291.88543 937.06493 292.51367 935.45508 292.51367 C 934.29658 292.51367 932.96073 292.18493 931.63672 291.51172 C 928.4584 289.89813 926.49485 286.91455 927.27344 284.84961 C 927.70128 283.72239 928.84993 283.10255 930.32422 283.0332 z M 1001.4062 294.87891 C 1002.7542 294.90158 1004.3709 295.3896 1005.9355 296.32617 C 1009.0387 298.19182 1010.7448 301.20686 1009.748 303.02734 C 1009.2515 303.915 1008.2078 304.35547 1006.9102 304.35547 C 1005.541 304.35547 1003.8855 303.86538 1002.2832 302.90625 C 999.17632 301.03308 997.47771 298.02934 998.4707 296.20508 C 998.98033 295.29296 1000.0582 294.85491 1001.4062 294.87891 z M 972.98242 304.35547 C 974.33039 304.37815 975.94113 304.86226 977.50586 305.79883 C 980.60896 307.672 982.31513 310.6796 981.31836 312.50391 C 980.82562 313.39153 979.78191 313.83203 978.48047 313.83203 C 977.11511 313.83203 975.45767 313.34194 973.85156 312.38281 C 970.74846 310.51342 969.04607 307.502 970.03906 305.67773 C 970.54877 304.76562 971.63445 304.33147 972.98242 304.35547 z M 996.67383 318.56445 C 998.02134 318.58713 999.62857 319.0771 1001.1914 320.01367 C 1004.2945 321.88681 1006.0065 324.89449 1005.0098 326.71875 C 1004.5132 327.60641 1003.4695 328.04688 1002.1719 328.04688 C 1000.8027 328.04688 999.14725 327.55682 997.54492 326.59766 C 994.44182 324.72826 992.73747 321.72058 993.73047 319.89258 C 994.24018 318.98046 995.32635 318.54045 996.67383 318.56445 z M 1022.7344 339.89258 C 1024.0824 339.91526 1025.6931 340.39933 1027.2578 341.33594 C 1030.3609 343.20907 1032.067 346.21679 1031.0703 348.04102 C 1030.5738 348.92871 1029.532 349.36914 1028.2344 349.36914 C 1026.8652 349.36914 1025.2078 348.88283 1023.6055 347.91992 C 1020.4986 346.05053 1018.8038 343.04497 1019.793 341.2207 C 1020.3026 340.30859 1021.3864 339.86952 1022.7344 339.89258 z M 994.30469 344.63086 C 995.65262 344.65354 997.26344 345.13765 998.82812 346.07422 C 1001.9312 347.94739 1003.6374 350.95507 1002.6406 352.7793 C 1002.1441 353.66699 1001.1004 354.10742 999.80273 354.10742 C 998.43356 354.10742 996.78202 353.61733 995.17969 352.6582 C 992.0728 350.78881 990.36833 347.78329 991.36133 345.95898 C 991.871 345.04498 992.95668 344.60731 994.30469 344.63086 z M 698.73828 358.60352 C 699.43791 365.12944 698.61303 373.30849 701.90039 382.63281 C 707.4634 398.39658 704.43646 391.24379 707.60352 397.97656 C 710.34553 403.81419 725.50179 420.5818 730.61719 429.75195 C 731.2077 430.81638 732.67848 433.48744 732.08789 433.97266 C 732.02402 434.02519 731.94151 434.05469 731.83984 434.05469 C 730.68886 434.05469 727.16785 430.90997 724.07227 428.06641 C 713.57814 418.42986 703.62652 404.82677 702.04297 400.43359 C 695.26129 381.63445 697.97852 362.82752 698.73828 358.60352 z M 1022.7344 373.0625 C 1024.0824 373.08518 1025.6931 373.56929 1027.2578 374.50586 C 1030.3609 376.37899 1032.067 379.38671 1031.0703 381.21094 C 1030.5738 382.0986 1029.532 382.53906 1028.2344 382.53906 C 1026.8652 382.53906 1025.2078 382.05483 1023.6055 381.0957 C 1020.4986 379.22253 1018.8038 376.20916 1019.793 374.38867 C 1020.3026 373.47652 1021.3864 373.03944 1022.7344 373.0625 z M 940.88672 413.66797 C 942.82014 421.13042 941.75312 431.20222 937.64258 442.72656 C 934.27566 452.17534 929.16166 458.65257 927.5918 460.60742 C 922.98346 466.34599 919.42269 469.68352 918.94141 470.02734 C 911.9452 474.98658 920.11609 470.96556 924.58398 467.66992 C 931.81569 462.33803 937.46529 456.69249 939.53711 451.2793 C 941.56551 445.97636 943.17177 444.05946 944.21484 434.09375 C 944.6631 429.81665 944.62068 422.9334 943.51562 419.85547 C 942.13372 416.00885 941.97942 415.22132 940.88672 413.66797 z M 1002.8516 416.12891 C 1002.9325 416.11535 1003.0384 416.11858 1003.1699 416.13672 C 1003.4334 416.17451 1003.7978 416.27485 1004.25 416.43359 C 1006.9634 417.38528 1012.9426 420.46885 1020.6016 424.86523 C 1028.2605 429.26154 1037.5998 434.96796 1047.0215 441.17383 C 1062.0169 451.93339 1077.7574 463.08364 1090.4551 474.3418 C 1095.6311 478.96703 1099.5145 482.43585 1102.0371 484.84375 C 1103.9292 486.64976 1105.0583 487.85626 1105.3926 488.50781 C 1105.5037 488.72476 1105.5247 488.88162 1105.459 488.97656 C 1105.3207 489.16629 1104.851 489.09741 1104.082 488.79883 C 1103.3131 488.50025 1102.2465 487.9701 1100.918 487.23438 C 1099.5894 486.49861 1097.9971 485.55739 1096.1797 484.43555 C 1087.0928 478.82612 1072.3359 468.71104 1056.334 457.27344 C 1049.5483 452.42147 1042.5432 447.3317 1035.6543 442.24805 C 1028.7654 437.16436 1021.9928 432.08409 1015.6719 427.24414 C 1011.0005 423.67838 1007.6599 421.06922 1005.5332 419.27734 C 1003.4064 417.48547 1002.4961 416.50974 1002.6855 416.21875 C 1002.7152 416.17207 1002.7706 416.14247 1002.8516 416.12891 z M 666.92969 447.4375 C 669.64475 447.3827 681.32445 449.59296 685.23438 450.53516 C 689.16875 451.47932 701.06066 456.15359 702.73828 456.74414 C 714.77831 460.91542 701.46433 454.77568 722.33594 465.58203 C 730.17834 469.64045 732.02577 470.51953 732.1875 470.51953 C 732.28539 470.51953 731.75298 470.19221 731.57617 470.05664 C 731.76439 470.15453 732.59178 470.57775 734.82227 471.78516 C 737.71096 473.34614 743.9668 476.28337 749.03711 478.82227 C 749.84204 479.22467 761.49737 480.79399 758.18359 486.95508 C 753.20735 496.24183 749.27164 498.86528 749.17383 504.69531 C 749.15115 505.54918 749.10842 508.81696 750.86133 509.74219 C 752.73446 510.73896 755.67595 508.46457 757.04883 507.49414 C 760.27231 505.24105 766.33561 503.93957 778.44336 501.30664 C 784.3449 500.0278 792.13783 498.72794 801.54492 498.20508 C 796.42574 499.08151 790.82928 500.43115 784.92773 502.44727 C 776.28418 505.38487 776.92378 506.38118 766.07227 510.59766 C 756.11979 514.45678 753.20715 514.53386 750.57422 518.20117 C 748.06166 521.73306 747.75854 525.83025 747.47266 529.73828 C 747.35247 531.67914 747.01944 536.68498 748.89258 542.70312 C 751.04785 549.66535 754.43766 552.43571 753.68164 558.16797 C 753.44466 559.87186 752.90293 561.50773 752.25977 561.55664 C 751.02979 561.60162 751.04813 555.46682 748.03906 553.94727 C 744.67642 552.22082 739.01886 557.12651 737.07422 558.73633 C 721.00956 571.83708 707.15077 562.62223 688.09961 575.62891 C 674.92735 584.58465 667.25126 597.97162 667.53711 596.16992 C 667.80054 594.60524 668.14868 589.20588 670.63867 584.91797 C 673.85841 579.32487 678.29623 576.26946 681.06836 574.49414 C 689.94889 568.78441 698.62008 565.34761 708.07227 562.10156 C 723.39976 556.86204 728.4736 556.34566 736.50781 550.56445 C 740.58509 547.62685 745.69244 543.1491 744.95898 541.84766 C 744.20297 540.54247 737.66461 540.37673 732.71094 542.65234 C 727.9942 544.80758 722.71418 547.20287 717.57617 549.07227 C 716.34624 549.52365 687.34247 562.81571 711.03516 549.61719 C 712.48328 548.81226 718.76006 545.66188 719.37695 545.40234 C 721.15227 544.61998 724.9413 542.81813 732.23828 539.26367 C 736.74061 537.08587 737.95138 536.39298 740.44141 533.66602 C 741.62621 532.38717 742.26418 531.20614 742.42969 530.87891 C 744.89337 525.95157 742.31097 521.56598 741.86328 516.23242 C 741.10348 507.04345 747.07311 501.40534 745.92969 495.14648 C 744.95926 489.82041 738.75247 489.53471 726.95312 483.89648 C 700.04077 471.07784 686.25109 464.11047 688.35742 464.44141 L 750.29297 488.34766 C 751.2634 487.77967 752.28198 486.35831 751.99609 485.26758 C 751.59365 483.86836 749.22428 483.42116 748.60742 483.30078 C 743.0632 482.09341 725.15857 472.45289 717.36133 468.13867 C 697.03503 456.86219 672.13274 450.03962 667.82227 448.38086 C 666.11554 447.72919 666.02468 447.45576 666.92969 447.4375 z M 1045.9805 454.98633 C 1047.7158 455.64053 1052.2599 457.74058 1055.7266 460.2207 C 1056.4805 460.75044 1057.1872 461.25871 1057.7656 461.66406 C 1060.0056 463.28491 1062.1332 464.91984 1064.1582 466.55078 C 1068.2082 469.81259 1071.8319 473.05505 1075.0547 476.11719 C 1076.6661 477.64835 1078.1771 479.13152 1079.5898 480.55273 C 1083.8279 484.81615 1087.1869 488.49481 1089.7344 491.04883 C 1090.5836 491.9002 1091.3434 492.62563 1092.0156 493.20703 C 1092.0871 493.26902 1092.1098 493.30078 1092.0977 493.30078 C 1091.8709 493.30078 1082.3742 486.62666 1072.2285 477.95117 C 1070.7791 476.71179 1069.3158 475.42843 1067.8652 474.12109 C 1064.7018 471.29185 1057.6143 465.50408 1054.3711 463.15234 C 1050.3559 460.23277 1047.2318 456.94215 1046.2285 455.59766 C 1045.9776 455.26128 1045.8593 455.04937 1045.8926 454.99219 C 1045.9039 454.97329 1045.9351 454.97035 1045.9805 454.99023 L 1045.9805 454.98633 z M 789.69336 472.56836 C 793.62395 472.56836 796.80078 474.15767 796.80078 476.12109 C 796.80078 478.08822 793.62395 479.67578 789.69336 479.67578 C 785.76276 479.67578 782.5918 478.08822 782.5918 476.12109 C 782.5918 474.15767 785.76276 472.56836 789.69336 472.56836 z M 815.75391 472.56836 C 819.68828 472.56836 822.86133 474.15767 822.86133 476.12109 C 822.86133 478.08822 819.68828 479.67578 815.75391 479.67578 C 811.81953 479.67578 808.64648 478.08822 808.64648 476.12109 C 808.64648 474.15767 811.81953 472.56836 815.75391 472.56836 z M 801.54492 484.41406 C 805.47552 484.41406 808.64648 486.00532 808.64648 487.96875 C 808.64648 489.93592 805.47552 491.52148 801.54492 491.52148 C 797.61055 491.52148 794.43164 489.93592 794.43164 487.96875 C 794.43164 486.00532 797.61055 484.41406 801.54492 484.41406 z M 904.49414 531.44531 C 889.84749 543.47033 881.10863 554.51498 871.55859 561.84961 C 862.83227 568.54852 856.17089 575.53819 849.30273 579.97656 C 832.73397 590.69262 820.68455 596.33398 820.10156 596.33398 C 820.02635 596.33398 820.14377 596.2385 820.4707 596.04688 C 821.44866 595.4714 824.32558 591.36873 835.66602 582.53711 C 851.40722 570.27137 874.22666 552.95642 904.49414 531.44531 z M 910.95312 534.37695 C 907.85376 539.01848 905.49611 542.33831 901.23828 547.46875 C 896.36356 553.33647 891.57451 559.11095 883.92773 564.7793 C 877.37169 569.64268 868.42875 574.64844 866.22461 574.64844 C 866.00275 574.64844 865.85067 574.59581 865.77148 574.49414 C 864.92895 573.34316 872.87711 565.1109 910.95312 534.37695 z "
       transform="matrix(0.26458333,0,0,0.26458333,0,87)"
       id="path230-8" />
    <path
       inkscape:connector-curvature="0"
       d="m 102.7919,203.6541 q 1.4841,0.093 3.26502,1.20865 2.4735,1.76649 1.38516,5.20649 -0.29682,1.02272 -0.69258,1.95244 -3.75972,7.34489 -5.4417,10.1341 -0.98939,1.76649 -3.067134,5.76433 -2.077733,3.99786 -2.077733,4.27678 0,0.18595 -2.671382,5.29948 -0.692571,1.30162 -1.088337,1.85946 -0.395767,0.55784 -0.989396,2.32438 -0.494698,1.67352 -0.494698,2.23135 0,0.55785 -0.395766,1.20866 -0.296825,0.55784 -0.494698,0.55784 -0.197883,0 -1.385162,-0.37189 -2.077732,-0.55784 -2.671372,-2.32434 -0.791522,-2.13843 0.692581,-6.22926 0.395756,-1.0227 0.296815,-1.11567 -0.09892,-0.093 -0.692581,0.37189 -0.494688,0.3719 -1.088337,0.74378 -1.87986,1.20866 -4.650174,3.06813 -3.067138,2.13842 -6.134261,2.88222 -1.87986,0.37188 -3.265022,0 -1.385162,-0.46487 -3.16608,-2.13844 -1.87985,-1.76649 -2.374557,-3.25406 -0.494698,-1.48757 0.197883,-3.90487 0.494698,-1.7665 4.254417,-8.83246 3.858651,-7.15895 3.858651,-7.34489 0,-0.27893 1.681986,-3.62596 1.780903,-3.34705 3.067124,-5.39245 0.890464,-1.48757 1.088337,-2.13839 0.197883,-0.74379 0.494708,-0.92974 0.296814,-0.18594 0.989395,-0.27891 0.791523,-0.093 1.681977,0.37189 1.484103,0.74379 1.484103,1.3946 0,0.27892 0.59363,0.74378 0.593649,0.46487 0.69259,1.39461 0.09892,0.74378 -0.09892,1.30161 -0.197883,0.55786 -1.385162,2.69624 -1.681977,3.06811 -1.780918,3.25406 -0.197873,0.27892 -2.869255,5.67138 -0.494698,1.11567 -1.681977,3.53297 -1.187279,2.32434 -1.187279,2.51028 0,0.093 -1.879854,3.71894 -1.780918,3.53297 -1.87986,3.8119 -0.09892,0.18595 0.197883,0.18595 0.197873,-0.093 0.692581,-0.3719 1.088337,-0.3719 1.484094,-0.65081 1.088337,-0.65082 4.254412,-2.13839 1.879849,-0.92973 2.869255,-1.48757 3.462895,-1.95244 4.056534,-2.04541 0.494698,-0.18594 2.374557,-1.20865 1.681977,-1.0227 2.275616,-1.85947 0.59364,-0.92973 3.265022,-6.69408 0.989395,-2.23136 5.738514,-11.34273 0.89045,-1.58055 0.98939,-2.51029 0.19788,-0.83675 0.39577,-1.11567 0.29681,-0.27891 1.08833,-0.37189 0.0989,0 0.19788,0 z"
       style="font-style:normal;font-variant:normal;font-weight:normal;font-stretch:normal;font-size:40px;line-height:3.25;font-family:TEGAS;-inkscape-font-specification:TEGAS;letter-spacing:1.08396327px;word-spacing:2.72436094px;fill:#f0f0f0;fill-opacity:1;stroke:none;stroke-width:2.39775467;stroke-opacity:0.69803922;opacity:1"
       id="path1648-1" />
    <path
       inkscape:connector-curvature="0"
       d="m 118.39788,203.00328 q 0.9894,0 1.18727,0.27892 0.29683,0.27892 0.79152,0.3719 0.59364,0.093 1.18728,0.83676 1.68198,2.4173 -0.0989,7.6238 l -0.4947,1.20866 0.39576,-0.093 q 1.28622,-0.37189 4.25443,-1.67351 2.96818,-1.39461 4.7491,-2.41731 0.89046,-0.46486 2.4735,-1.3946 1.68198,-0.92973 2.57243,-1.58054 1.08835,-0.83677 1.9788,-0.83677 0.98941,0 2.4735,0.74379 1.28622,0.74379 1.58305,1.76649 0.29681,1.02271 -0.49471,1.95244 -0.69258,0.65081 -2.4735,1.67352 -1.78091,1.11568 -3.06714,1.76649 -2.37455,1.48757 -8.212,4.46272 -1.68198,0.92973 -2.07774,1.20865 -0.39576,0.27892 -0.9894,0.55785 l -0.59364,0.27892 v 0.093 l 0.9894,1.20864 q 1.28622,1.67353 2.67138,4.09083 4.05653,7.15894 5.34276,9.29733 1.28621,2.04541 2.07773,2.4173 0.4947,0.27892 0.98939,0 1.28622,-0.74378 1.87986,0 0.29683,0.27892 0.9894,1.58055 0.79152,1.67352 0.39577,2.60325 -0.39577,0.8368 -1.97881,1.2087 -0.98939,0.18595 -2.27561,-0.3719 -1.18728,-0.55784 -3.26501,-2.60329 -2.27562,-2.04542 -3.66078,-3.99785 -1.28622,-2.04541 -4.25442,-7.43787 -1.78092,-3.25405 -2.77031,-4.74163 -0.69258,-1.02271 -0.98941,-1.20865 -0.19788,-0.27892 -0.89045,-0.46487 -1.08835,-0.27892 -1.38516,-0.18595 -0.29682,0.093 -0.69257,0.92974 -0.39577,1.0227 -0.6926,1.48757 -0.69257,1.11568 -3.26501,7.25191 -0.69258,1.67352 -1.08833,2.32434 -0.39576,0.65081 -0.89047,2.04541 -1.58303,4.09082 -2.37456,5.48542 -0.39575,0.74383 -0.39575,1.02275 0,0.3719 -0.4947,0.74379 -0.39577,0.37189 -0.9894,0.55783 -0.0989,0.0929 -0.19788,0.0929 v -0.0929 q -0.39575,0.0929 -0.4947,-0.093 -0.0989,-0.18594 -0.59364,-0.27891 -0.49469,-0.0929 -1.28622,-0.83677 -0.69258,-0.74383 -0.98939,-1.48761 -0.79152,-1.48758 -0.0989,-3.90488 0.98939,-3.81191 5.54062,-13.76004 0.98941,-2.13839 3.36397,-7.34489 2.37454,-5.29949 2.47349,-5.5784 1.78091,-2.97514 2.07774,-5.02055 0.19788,-1.11569 0.4947,-1.39461 0.39576,-0.37189 1.58304,-0.37189 z"
       style="font-style:normal;font-variant:normal;font-weight:normal;font-stretch:normal;font-size:40px;line-height:3.25;font-family:TEGAS;-inkscape-font-specification:TEGAS;letter-spacing:1.08396327px;word-spacing:2.72436094px;fill:#f0f0f0;fill-opacity:1;stroke:none;stroke-width:2.39775467;stroke-opacity:0.69803922;opacity:1"
       id="path1650-1" />
    <path
       inkscape:connector-curvature="0"
       d="m 162.95768,199.65625 q 0.79152,0 1.48409,0.74378 0.69259,0.74378 1.28622,1.30163 1.08835,1.11568 1.08835,2.13839 0,0.27891 -0.19789,0.83675 -0.19788,0.46486 -0.59364,0.92973 -1.28622,1.30163 -2.57243,4.1838 -2.17668,5.02055 -3.26502,6.13623 -0.89046,0.92973 -1.4841,0.3719 -0.39576,-0.27892 -0.79151,0.093 -0.39577,0.27892 -0.39577,0.83677 0,1.20865 -1.08834,-0.18596 l -0.59364,-0.74378 0.0989,-1.85947 q 0.0989,-1.95244 0.19788,-2.60325 l 0.19788,-0.65081 -0.89046,0.46487 q -0.79152,0.55783 -1.87986,1.20865 -0.9894,0.65082 -2.57243,1.95243 -1.78092,1.30163 -3.66078,2.78921 -0.89046,0.74378 -1.87986,1.58054 -0.9894,0.83676 -1.58303,1.48758 -0.59365,0.55783 -0.59365,0.6508 0.0989,0 2.77032,-0.27892 2.77031,-0.37188 3.85865,-0.6508 9.30035,-1.58056 11.18021,-0.65081 3.26502,1.58053 4.15548,2.78919 1.38515,2.04542 0.98939,3.71894 -0.4947,1.95242 -3.36396,5.39244 -1.68197,2.13838 -4.94698,5.11352 -3.16608,2.97516 -5.54064,4.64872 -2.4735,1.76649 -4.45229,3.1611 -1.87986,1.39458 -2.96821,2.13838 -4.94699,3.44 -6.53002,4.64866 -0.79152,0.74378 -1.08834,0.83676 -0.29682,0.093 -0.9894,-0.18595 -0.69258,-0.18595 -1.08834,-0.46486 -1.68198,-1.39461 -2.07773,-2.23136 -0.39577,-0.83677 0.0989,-1.95244 0.39575,-1.02271 0.69257,-1.39461 0.89046,-0.92973 3.46289,-2.51027 0.39577,-0.27892 1.08835,-0.83675 0.79151,-0.55785 2.47349,-1.76655 3.4629,-2.4173 4.15548,-3.06811 0.39576,-0.46487 1.68197,-1.30163 4.84806,-3.25406 8.60778,-7.34489 2.86925,-3.06812 2.57244,-3.25407 0,0 -2.07774,0.37191 -2.07775,0.37189 -2.86926,0.55783 -4.05653,1.0227 -8.80565,1.0227 -3.06714,0 -4.15547,-0.37189 -0.9894,-0.37189 -2.57244,-2.13838 -0.89046,-0.92973 -1.87986,-3.62595 -0.29682,-0.92974 0,-2.04541 0.39576,-1.11569 0.79152,-1.58056 0.49471,-0.46486 1.28622,-1.3946 0.79152,-0.92973 2.77031,-2.51028 2.07774,-1.67352 3.56184,-2.60324 0.89045,-0.55785 0.79152,-0.83676 -0.0989,-0.3719 0.59364,-0.83677 0.79151,-0.55784 0.89045,-0.55784 0.19789,0 0.4947,-0.27892 0.29683,-0.46486 3.16608,-2.13838 2.9682,-1.67352 3.66078,-1.85947 0.4947,-0.18594 1.28622,-0.55783 1.38516,-0.55784 2.77031,0 0.19789,0.093 0.39577,-0.093 0.19787,-0.27892 0.59363,-0.92973 0.69258,-1.11568 1.38516,-1.95243 0.79151,-0.83677 0.79151,-1.11569 0,-0.74378 2.07775,-0.74378 z"
       style="font-style:normal;font-variant:normal;font-weight:normal;font-stretch:normal;font-size:40px;line-height:3.25;font-family:TEGAS;-inkscape-font-specification:TEGAS;letter-spacing:1.08396327px;word-spacing:2.72436094px;fill:#f0f0f0;fill-opacity:1;stroke:none;stroke-width:2.39775467;stroke-opacity:0.69803922;opacity:1"
       id="path1652-8" />
    <path
       style="opacity:1;vector-effect:none;fill:none;fill-opacity:0.69803922;stroke:#f0f0f0;stroke-width:1.548;stroke-linecap:square;stroke-linejoin:round;stroke-miterlimit:4;stroke-dasharray:none;stroke-dashoffset:0;stroke-opacity:0.00392157"
       d="m 35.246151,241.78996 c -1.772559,2.66868 -1.277065,2.24488 -4.06151,3.82939 -1.959923,1.11529 -4.11726,1.9083 -6.354203,2.19338 -2.236943,0.28508 -4.554735,0.0511 -6.642649,-0.80085 C 14.79621,245.62801 12.2091,242.6992 10.571479,239.4226 8.9338581,236.146 8.1492522,232.51629 7.5117947,228.90914 2.7292614,201.84634 5.662338,173.06898 18.187789,148.60715 c 2.944502,-5.75054 6.425121,-11.27767 10.868892,-15.96722 4.443771,-4.68954 9.898245,-8.52698 16.053152,-10.49066 6.194834,-1.97641 10.951483,-3.37513 17.148536,-1.40578 6.197053,1.96945 10.390306,4.94549 14.307598,10.13557"
       id="path1694-7"
       inkscape:connector-curvature="0"
       sodipodi:nodetypes="ccsccsssscc" />
    <path
       style="opacity:1;vector-effect:none;fill:#f0f0f0;fill-opacity:1;stroke:none;stroke-width:0.7475661;stroke-linecap:square;stroke-linejoin:round;stroke-miterlimit:4;stroke-dasharray:none;stroke-dashoffset:0;stroke-opacity:0.69803922"
       d="m 77.110454,130.98585 c -0.392104,0 -0.698826,0.34931 -0.634128,0.74639 l 0.07582,0.48253 c 0.007,0.0179 0.01164,0.0379 0.01164,0.0568 l 0.609363,2.37474 0.568541,1.9068 c 0.125403,0.40703 0.288654,0.78874 0.495663,1.15895 l 0.193882,0.33238 c 0.658814,1.15938 1.454805,2.24345 2.370368,3.22172 0.544368,0.58318 1.12903,1.13393 1.742056,1.64147 l 1.806206,1.51756 c 0.790189,0.65783 1.630505,1.25466 2.513247,1.77415 l 2.72753,1.60356 3.559936,2.05987 c 0.10947,0.0627 0.211059,0.13415 0.307592,0.21576 l 0.795951,0.67787 c 0.826991,0.69564 1.44762,1.60588 1.798911,2.62695 0.138331,0.39409 0.231461,0.80849 0.287191,1.22746 l 0.214294,1.56713 0.414008,-0.33238 c 0,0 0.927336,-1.04663 1.00296,-1.15311 0.04279,-0.0746 0.238925,-0.65752 0.37029,-1.09043 0.09952,-0.31249 0.12609,-0.63931 0.07434,-0.95778 l -0.212841,-1.32368 c -0.138321,-0.85884 -0.846825,-1.24769 -1.661883,-1.71144 l -3.747996,-3.74217 -2.419928,-2.3383 -3.892318,-3.97394 c -0.03085,-0.0388 -0.06011,-0.0792 -0.08887,-0.11808 L 85.81646,138.4439 c -0.10748,-0.18312 -0.117731,-0.40755 -0.02916,-0.60062 l 0.255116,-0.55104 c 0.006,-0.0189 0.01881,-0.0388 0.02478,-0.0627 0.15923,-0.49163 0.154215,-1.02218 -0.01901,-1.50882 l -0.006,-0.0175 c -0.164206,-0.36722 -0.0614,-0.15914 -0.281339,-0.50148 l -0.161818,-0.21721 c -0.05673,-0.0508 -0.304388,-0.30332 -0.379027,-0.34112 l -0.460662,-0.29303 c -0.665781,-0.31547 -0.901829,-0.4659 -1.568585,-0.78138 l -0.11372,-0.032 0.406733,0.41256 0.09474,0.089 0.845521,0.81491 c 0.01194,0.0129 0.02309,0.0245 0.03503,0.0364 l 0.648713,0.79159 c 0.106495,0.13136 0.156413,0.30036 0.1385,0.46358 l -0.01314,0.17493 c -0.02488,0.21397 -0.149984,0.40826 -0.344046,0.50877 -0.238845,0.12539 -0.533699,0.0874 -0.734727,-0.0947 l -1.717286,-1.5613 c -0.01294,-0.0159 -0.02936,-0.0288 -0.04229,-0.0437 l -2.07007,-2.50742 -0.212841,-0.25802 c -0.106485,-0.12539 -0.256619,-0.20528 -0.41985,-0.21722 -0.007,-0.007 -0.01304,-0.007 -0.01901,-0.007 l -1.004413,-0.0948 c -0.171182,-0.0149 -0.327874,-0.0989 -0.437345,-0.23032 l -0.475252,-0.57729 c -0.10748,-0.12539 -0.25225,-0.20705 -0.415461,-0.22596 l -0.144332,-0.0189 c -0.02886,-0.003 -0.05812,-0.006 -0.08598,-0.006 z m 3.396665,2.93308 c 0.251773,-0.17813 3.006123,4.07093 8.638875,9.53252 1.623161,1.57439 3.033382,2.81236 4.020598,3.65032 -2.030183,-1.01608 -4.955746,-2.77826 -7.745256,-5.73497 -3.266206,-3.46126 -5.14511,-7.28665 -4.914217,-7.44787 z"
       id="path1692-1"
       inkscape:connector-curvature="0"
       sodipodi:nodetypes="cccccccccccccccccccccccccccccccccccccccccccccccccccccccccccccccccccc" />
    <path
       style="opacity:1;fill:#f0f0f0;fill-opacity:1;stroke:none;stroke-width:0.32873696;stroke-linecap:square;stroke-linejoin:round;stroke-miterlimit:4;stroke-dasharray:none;stroke-opacity:0.52941165"
       d="m 35.743068,241.71193 c -1.076883,-0.43291 -2.068169,-2.20663 -1.730154,-3.09565 0.149975,-0.39447 0.26066,-1.59265 0.245961,-2.6626 -0.03324,-2.42219 0.715152,-4.29212 4.653955,-11.62793 5.425275,-10.10424 9.874908,-19.05724 9.874908,-19.86911 0,-1.69262 2.704433,-0.28789 3.250044,1.68812 0.714585,2.58801 0.27305,3.78394 -6.624416,17.94307 -2.711419,5.56602 -3.85486,8.23809 -3.624036,8.46895 0.230834,0.23079 0.947966,0.062 2.272889,-0.53614 7.163998,-3.23227 11.280492,-4.41269 15.388417,-4.41269 2.933316,0 3.591642,0.32667 3.393709,1.684 -0.145964,1.00093 -2.537171,2.35423 -5.686293,3.21818 -1.389759,0.38133 -4.173946,1.44404 -6.187071,2.36158 -2.013135,0.91761 -4.684766,2.10072 -5.936971,2.62901 -2.549631,1.07585 -3.944764,1.87351 -6.058016,3.4637 -1.499956,1.1287 -1.998227,1.24394 -3.232926,0.74751 z"
       id="path1688-5"
       inkscape:connector-curvature="0" />
  </g>
</svg>
